<?xml version="1.0" encoding="UTF-8" standalone="no" ?>
<!DOCTYPE svg PUBLIC "-//W3C//DTD SVG 1.1//EN" "http://www.w3.org/Graphics/SVG/1.1/DTD/svg11.dtd">
<svg xmlns="http://www.w3.org/2000/svg" xmlns:xlink="http://www.w3.org/1999/xlink" version="1.1" width="640" height="640" viewBox="0 0 640 640" xml:space="preserve">
<desc>Created with Fabric.js 5.3.0</desc>
<defs>
</defs>
<g transform="matrix(1.0638844617 0 0 1.0638844617 319.5633691405 320)" id="owaaHM3eTlL_163_7wg9d"  >
<path style="stroke: none; stroke-width: 1; stroke-dasharray: none; stroke-linecap: butt; stroke-dashoffset: 0; stroke-linejoin: miter; stroke-miterlimit: 4; fill: rgb(35,31,32); fill-rule: nonzero; opacity: 1;" vector-effect="non-scaling-stroke"  transform=" translate(-300.0001942301, -299.9975)" d="M 6.817 301.458 C 4.905 301.458 3.3520000000000003 301.65400000000005 2.5440000000000005 301.83000000000004 C 0 302.133 0 305.232 0 306.438 C -0.003 315.852 5.226 351.004 30.813 351.008 L 30.813 351.008 C 33.199 351.008 35.708999999999996 350.678 38.302 350.041 C 41.138 362.767 44.894999999999996 375.122 49.516 387.03499999999997 C 41.949999999999996 380.65999999999997 34.495999999999995 378.81899999999996 28.47 378.81899999999996 C 21.083 378.81899999999996 16.1 381.62299999999993 16.051 381.65099999999995 L 16.055 381.65099999999995 C 15.254 382.10099999999994 14.472999999999999 383.025 14.632 384.67299999999994 C 15.128 389.82099999999997 27.947 422.26099999999997 50.452 422.26099999999997 C 50.452 422.26099999999997 50.455999999999996 422.26099999999997 50.458999999999996 422.26099999999997 C 54.977999999999994 422.26099999999997 59.574999999999996 420.844 64.164 418.198 C 70.613 429.78799999999995 77.95400000000001 440.82899999999995 86.16 451.238 C 81.21199999999999 449.046 76.32 447.927 71.502 447.927 C 61.36 447.927 54.753 452.932 52.334999999999994 455.12800000000004 L 52.34199999999999 455.13900000000007 C 51.596999999999994 455.81700000000006 51.21099999999999 456.93100000000004 51.413999999999994 457.91800000000006 C 52.13799999999999 461.4390000000001 71.065 486.20400000000006 91.395 486.20400000000006 C 91.395 486.20400000000006 91.395 486.20400000000006 91.398 486.20400000000006 C 98.398 486.20400000000006 104.66799999999999 483.25900000000007 110.08 477.48100000000005 C 119.006 485.98500000000007 128.607 493.89200000000005 138.847 501.13800000000003 C 139.086 501.314 139.29000000000002 501.49 139.536 501.665 C 139.55 501.672 139.564 501.67900000000003 139.578 501.68600000000004 C 139.655 501.73900000000003 139.74 501.77000000000004 139.824 501.81600000000003 C 140.864 502.54600000000005 141.894 503.28900000000004 142.948 504.002 C 140.794 503.7 138.685 503.49600000000004 136.668 503.49600000000004 C 125.581 503.49600000000004 116.489 508.187 111.025 516.7900000000001 L 111.028 516.7940000000001 C 110.43100000000001 517.5140000000001 110.19200000000001 518.5470000000001 110.462 519.4470000000001 C 111.61800000000001 523.3050000000001 134.341 537.7140000000002 152.151 537.7200000000001 C 152.15800000000002 537.7200000000001 152.15800000000002 537.7200000000001 152.15800000000002 537.7200000000001 C 163.966 537.7200000000001 172.50500000000002 531.7180000000002 176.863 520.3640000000001 C 176.87 520.3360000000001 176.87 520.3070000000001 176.877 520.2830000000001 C 176.919 520.1670000000001 176.919 520.0440000000001 176.947 519.9250000000002 C 176.989 519.7070000000002 177.025 519.4890000000001 177.014 519.2720000000002 C 177.01100000000002 519.2290000000002 177.032 519.1870000000001 177.02800000000002 519.1450000000002 C 177.01700000000002 519.0570000000002 176.972 518.9870000000002 176.954 518.9030000000002 C 176.919 518.6950000000003 176.863 518.5030000000003 176.77800000000002 518.3120000000002 C 176.722 518.1820000000002 176.65200000000002 518.0630000000002 176.574 517.9430000000002 C 176.47500000000002 517.7930000000002 176.366 517.6590000000002 176.23700000000002 517.5290000000002 C 176.12800000000001 517.4170000000003 176.01900000000003 517.3140000000002 175.89200000000002 517.2230000000002 C 175.836 517.1840000000002 175.80100000000002 517.1270000000002 175.74500000000003 517.0920000000002 C 171.80900000000003 514.6990000000002 168.00000000000003 512.6440000000002 164.31000000000003 510.8790000000002 C 157.61900000000003 507.10600000000017 151.14900000000003 503.07000000000016 144.91200000000003 498.7900000000002 C 155.69400000000005 482.8850000000002 151.39200000000002 465.46900000000016 132.02200000000005 446.9710000000002 C 131.46000000000004 446.4370000000002 131.00600000000006 446.01500000000016 130.70800000000006 445.70500000000015 C 130.12500000000006 444.30700000000013 128.29000000000005 443.65300000000013 126.93400000000005 444.35900000000015 C 126.69500000000005 444.4850000000001 126.47000000000006 444.6510000000001 126.27700000000006 444.84000000000015 C 126.27700000000006 444.84000000000015 126.27400000000006 444.84000000000015 126.27400000000006 444.84300000000013 C 122.74600000000005 447.65800000000013 114.73300000000006 455.35500000000013 115.00400000000006 466.95800000000014 C 115.07800000000006 470.2230000000001 115.87600000000006 473.5090000000001 117.24300000000007 476.7980000000001 C 114.87400000000007 474.6260000000001 112.55500000000006 472.40800000000013 110.28100000000006 470.1560000000001 C 108.27500000000006 467.9210000000001 106.27100000000006 465.8680000000001 104.27500000000006 463.97000000000014 C 99.22200000000007 458.59300000000013 94.42500000000007 453.01300000000015 89.89500000000007 447.22900000000016 C 105.17500000000007 435.18600000000015 106.61900000000007 417.7160000000002 94.11200000000007 395.2400000000002 C 93.78100000000006 394.6430000000002 93.50800000000007 394.1720000000002 93.33500000000006 393.8280000000002 C 93.32800000000006 393.7780000000002 93.32100000000007 393.7290000000002 93.31100000000006 393.6810000000002 C 93.03700000000006 392.1410000000002 91.37100000000007 391.1330000000002 89.87100000000007 391.5760000000002 C 89.76600000000006 391.6070000000002 89.66300000000007 391.64200000000017 89.55800000000006 391.6880000000002 C 87.02800000000006 392.64400000000023 75.53000000000006 397.5880000000002 71.95900000000006 409.69900000000024 C 71.06000000000006 412.7530000000002 70.80700000000006 416.0030000000002 71.06000000000006 419.40800000000024 C 69.78100000000006 417.20100000000025 68.53300000000006 414.97700000000026 67.32100000000005 412.72800000000024 C 65.69100000000006 409.05900000000025 64.00400000000005 405.7840000000002 62.28900000000006 402.83800000000025 C 59.39000000000006 396.82900000000024 56.708000000000055 390.69600000000025 54.29800000000006 384.4280000000002 C 72.55800000000006 377.2410000000002 79.00300000000006 361.0750000000002 73.40400000000005 336.29000000000025 C 73.26700000000005 335.67500000000024 73.14800000000005 335.18000000000023 73.08100000000006 334.82800000000026 C 73.10200000000006 334.67700000000025 73.11300000000006 334.52600000000024 73.10600000000007 334.3680000000003 C 73.06700000000006 332.9090000000003 71.86900000000007 331.74600000000027 70.40700000000007 331.74600000000027 C 70.39700000000006 331.74600000000027 70.34100000000007 331.74600000000027 70.23900000000006 331.75300000000027 L 70.23900000000006 331.7500000000003 C 70.20400000000006 331.75300000000027 70.17200000000007 331.75300000000027 70.14000000000006 331.7600000000003 C 68.16100000000006 331.88300000000027 55.72500000000006 333.1030000000003 48.53500000000005 343.39300000000026 C 46.60600000000005 346.1590000000003 45.309000000000054 349.33800000000025 44.51100000000005 352.83500000000026 C 43.861000000000054 350.12200000000024 43.25300000000005 347.3920000000003 42.687000000000054 344.64000000000027 C 42.227000000000054 341.43200000000024 41.668000000000056 338.4380000000003 41.007000000000055 335.68600000000026 C 40.424000000000056 332.21700000000027 39.879000000000055 328.73200000000026 39.42900000000005 325.21700000000027 C 39.004000000000055 321.86400000000026 38.666000000000054 318.5190000000003 38.37100000000005 315.17700000000025 C 57.88500000000005 313.36700000000025 68.48800000000006 299.6900000000002 69.85400000000006 274.41700000000026 C 69.88600000000005 273.79500000000024 69.90700000000005 273.2960000000003 69.94200000000005 272.94600000000025 C 70.08900000000006 272.60900000000026 70.16700000000004 272.24200000000025 70.16700000000004 271.86600000000027 C 70.16700000000004 270.39300000000026 70.16700000000004 268.5600000000003 61.557000000000045 268.5600000000003 C 55.85700000000004 268.5600000000003 47.73900000000005 269.98400000000026 41.432000000000045 276.7660000000003 C 39.94500000000004 278.3630000000003 38.68700000000005 280.2150000000003 37.57000000000004 282.2310000000003 C 37.68600000000004 279.3360000000003 37.844000000000044 276.4500000000003 38.05500000000004 273.5700000000003 C 38.42800000000004 270.7230000000003 38.66600000000004 267.99100000000027 38.789000000000044 265.35400000000027 C 39.54100000000005 258.28700000000026 40.59200000000004 251.27800000000028 41.920000000000044 244.34000000000026 C 44.380000000000045 244.80800000000025 46.80500000000004 245.12700000000027 49.103000000000044 245.12700000000027 C 49.103000000000044 245.12700000000027 49.106000000000044 245.12700000000027 49.11000000000004 245.12700000000027 C 72.53600000000004 245.12700000000027 80.69900000000004 221.63000000000028 83.38100000000004 213.90900000000028 C 83.60200000000005 213.27800000000028 83.76700000000004 212.77400000000029 83.90400000000004 212.43100000000027 C 84.30800000000004 211.94800000000026 84.53300000000004 211.33200000000028 84.53300000000004 210.69700000000026 C 84.53300000000004 209.74300000000025 83.82700000000004 208.89400000000026 82.69500000000005 208.15400000000025 L 82.69900000000005 208.14200000000025 C 82.68500000000006 208.13600000000025 82.67100000000005 208.13100000000026 82.65000000000005 208.12500000000026 C 79.10800000000005 205.83400000000026 71.51700000000005 204.60400000000027 68.50900000000004 204.60400000000027 C 62.795000000000044 204.60400000000027 56.16000000000004 206.36300000000026 50.23800000000004 212.28300000000027 C 51.243000000000045 209.25400000000027 52.325000000000045 206.25100000000026 53.44300000000004 203.26500000000027 C 54.37400000000004 201.08200000000028 55.21100000000004 198.94600000000028 55.94200000000004 196.85700000000028 C 58.70400000000004 190.05100000000027 61.76200000000004 183.37300000000027 65.11400000000005 176.84300000000027 C 70.19900000000004 179.44600000000028 75.29900000000005 180.84200000000027 80.31700000000005 180.84200000000027 C 80.31700000000005 180.84200000000027 80.31700000000005 180.84200000000027 80.32000000000005 180.84200000000027 C 97.95400000000005 180.84200000000027 109.53300000000004 164.91400000000027 113.89500000000005 158.91900000000027 C 114.33800000000005 158.31000000000026 114.68200000000006 157.82200000000026 114.93500000000006 157.50300000000027 C 115.10700000000006 157.39600000000027 115.27200000000006 157.26800000000026 115.42000000000006 157.11900000000028 C 115.92600000000006 156.61300000000028 116.21100000000006 155.92700000000028 116.21100000000006 155.2100000000003 C 116.21100000000006 152.3140000000003 106.00500000000005 144.5790000000003 95.22400000000006 144.5790000000003 C 90.85200000000006 144.5790000000003 86.64200000000005 145.7110000000003 82.58700000000006 147.91100000000029 C 84.31600000000006 145.4430000000003 86.08700000000006 143.0010000000003 87.90800000000006 140.5960000000003 C 89.93900000000006 138.20800000000028 91.75200000000005 135.8890000000003 93.35500000000006 133.64700000000028 C 101.10000000000007 124.16100000000027 109.60500000000006 115.22400000000027 118.81200000000007 106.91300000000027 C 143.41500000000008 105.22600000000027 162.50400000000008 92.55900000000027 175.53800000000007 69.21300000000026 C 175.93500000000006 68.50500000000027 176.22000000000006 67.97300000000027 176.42400000000006 67.67200000000027 C 177.11300000000006 66.96800000000027 177.41500000000008 65.89800000000027 177.13100000000006 64.94100000000027 C 176.76200000000006 63.68900000000027 176.34000000000006 62.27100000000027 167.96600000000007 62.27100000000027 C 157.77800000000008 62.27100000000027 124.08400000000006 65.23400000000026 115.23600000000008 102.87100000000027 C 111.08200000000008 106.61900000000027 107.07900000000008 110.49900000000027 103.21400000000007 114.49100000000027 C 105.45200000000007 107.00800000000027 105.27000000000007 100.90100000000027 104.23300000000008 96.29300000000026 C 102.24000000000008 87.40700000000027 96.85700000000007 82.16400000000026 94.84700000000008 80.91100000000026 C 94.79000000000008 80.87600000000026 94.73400000000008 80.84100000000026 94.67800000000008 80.80900000000025 C 94.58700000000009 80.75800000000025 94.50200000000008 80.71700000000025 94.43200000000009 80.68600000000025 L 94.43200000000009 80.68900000000025 C 94.07000000000009 80.53300000000024 93.67300000000009 80.44700000000024 93.30100000000009 80.44700000000024 C 89.68500000000009 80.44700000000024 74.36600000000008 96.98500000000024 70.21300000000008 112.26000000000025 C 66.90300000000008 124.41900000000025 70.55800000000008 134.40100000000024 80.61900000000009 141.37100000000024 C 74.10000000000008 150.34300000000025 68.19300000000008 159.71900000000022 62.92900000000009 169.43800000000024 C 62.46900000000009 170.24700000000024 62.00500000000009 171.05300000000025 61.54800000000009 171.90000000000023 C 61.51300000000009 171.97000000000023 61.51300000000009 172.04900000000023 61.482000000000085 172.12200000000024 C 61.436000000000085 172.22200000000024 61.387000000000086 172.31300000000024 61.35500000000008 172.41900000000024 C 60.87400000000008 173.33200000000025 60.378000000000085 174.23500000000024 59.91100000000008 175.15400000000025 C 59.78500000000008 169.40700000000027 58.56900000000008 164.18500000000026 56.19700000000008 159.55000000000024 C 51.57200000000008 150.52600000000024 43.99200000000008 146.75300000000024 41.87000000000008 146.05000000000024 C 41.56800000000008 145.94400000000024 41.23700000000008 145.88300000000024 40.92500000000008 145.88300000000024 C 36.56000000000008 145.88300000000024 29.602000000000082 164.58800000000025 28.341000000000083 174.64600000000024 C 26.317000000000082 190.82900000000024 32.741000000000085 202.10500000000025 46.47400000000008 206.69700000000023 C 42.22500000000008 218.85000000000022 38.88300000000008 231.34900000000022 36.48000000000008 244.09300000000025 C 34.93400000000008 239.27700000000024 32.677000000000085 235.08700000000024 29.662000000000084 231.59300000000025 C 22.472000000000083 223.24400000000026 13.732000000000085 221.79000000000025 11.332000000000086 221.55300000000025 C 11.157000000000085 221.51900000000026 10.981000000000087 221.50300000000024 10.812000000000086 221.50300000000024 C 5.421000000000086 221.50300000000024 5.358000000000087 242.34800000000024 5.358000000000087 242.55700000000024 C 5.358000000000087 264.36500000000024 15.191000000000088 277.10700000000026 32.36500000000009 277.8370000000002 C 31.732000000000088 289.2240000000002 31.848000000000088 300.7220000000002 32.720000000000084 312.2700000000002 C 32.73400000000009 312.4810000000002 32.73400000000009 312.6700000000002 32.74800000000008 312.8810000000002 C 32.75100000000008 312.9310000000002 32.77600000000008 312.9660000000002 32.78300000000008 313.0110000000002 C 32.86700000000008 314.12500000000017 32.95500000000008 315.2400000000002 33.05700000000008 316.3540000000002 C 24.399 303.377 12.848 301.458 6.817 301.458 z M 152.157 532.326 C 152.157 532.326 152.157 532.326 152.15400000000002 532.326 C 137.48300000000003 532.318 121.09900000000002 521.927 116.49900000000002 518.307 C 121.01100000000002 512.143 127.95200000000003 508.896 136.66700000000003 508.896 C 143.93400000000003 508.896 152.30500000000004 511.142 161.63900000000004 515.57 C 162.69300000000004 516.167 163.74700000000004 516.758 164.81200000000004 517.3380000000001 C 157.91400000000004 517.7560000000001 150.98700000000005 518.0160000000001 144.07100000000003 517.9250000000001 C 144.06000000000003 517.9250000000001 144.04700000000003 517.9250000000001 144.03600000000003 517.9250000000001 C 142.56300000000002 517.9250000000001 141.35500000000002 519.113 141.33700000000002 520.5880000000001 C 141.31900000000002 522.0780000000001 142.51100000000002 523.3020000000001 144.001 523.3220000000001 C 145.24200000000002 523.3370000000001 146.485 523.3460000000001 147.73000000000002 523.3460000000001 C 155.145 523.3460000000001 162.56000000000003 522.9880000000002 169.90800000000002 522.4150000000001 C 166.126 529.047 160.299 532.326 152.157 532.326 z M 91.393 480.808 C 76.43 480.808 61.104 463.353 57.414 457.924 C 59.983000000000004 455.998 64.766 453.327 71.499 453.327 C 80.49199999999999 453.327 90.328 458.289 100.315 467.661 C 100.849 468.226 101.362 468.804 101.899 469.365 C 95.461 468.002 89.027 466.392 82.68 464.519 C 81.25 464.097 79.74900000000001 464.916 79.32700000000001 466.343 C 78.90500000000002 467.773 79.72400000000002 469.274 81.15400000000001 469.696 C 88.864 471.96900000000005 96.70100000000001 473.87100000000004 104.52400000000002 475.403 C 100.56700000000002 478.994 96.16700000000002 480.807 91.39500000000001 480.807 L 91.393 480.807 z M 127.951 450.551 C 128.05599999999998 450.656 128.173 450.762 128.28799999999998 450.87399999999997 C 134.53599999999997 456.83799999999997 152.57099999999997 474.152 141.76799999999997 493.51899999999995 C 139.20299999999997 486.46899999999994 137.01299999999998 479.3109999999999 135.28099999999998 472.1569999999999 C 134.92899999999997 470.70899999999995 133.47499999999997 469.8299999999999 132.01999999999998 470.16799999999995 C 130.57199999999997 470.5199999999999 129.67999999999998 471.98099999999994 130.03099999999998 473.429 C 131.49299999999997 479.452 133.28099999999998 485.476 135.31599999999997 491.443 C 125.61699999999998 482.981 120.57799999999997 474.72999999999996 120.39499999999998 466.837 C 120.22 459.252 124.662 453.657 127.951 450.551 z M 167.96 67.675 C 168.77800000000002 67.675 169.523 67.696 170.174 67.73 C 159.53300000000002 86.182 144.731 97.191 126.10600000000001 100.584 C 132.386 95.352 138.964 90.38300000000001 145.75300000000001 85.765 C 146.983 84.927 147.30300000000003 83.249 146.46300000000002 82.016 C 145.627 80.781 143.95000000000002 80.464 142.717 81.302 C 135.89200000000002 85.941 129.282 90.933 122.96000000000001 96.185 C 133.43 69.908 159.562 67.675 167.96 67.675 z M 109.755 155.438 C 109.67699999999999 155.541 109.604 155.64399999999998 109.523 155.75099999999998 C 105.60799999999999 161.14 95.20599999999999 175.45299999999997 80.316 175.45099999999996 L 80.313 175.45099999999996 C 76.95400000000001 175.45099999999996 73.513 174.68099999999995 70.038 173.23199999999997 C 76.444 170.21599999999998 82.977 167.48599999999996 89.524 165.11799999999997 C 90.926 164.61099999999996 91.65 163.06499999999997 91.144 161.66299999999995 C 90.638 160.25999999999996 89.08500000000001 159.52299999999997 87.69000000000001 160.04299999999995 C 82.022 162.09199999999996 76.36300000000001 164.41799999999995 70.78300000000002 166.94699999999995 C 78.31700000000002 155.68099999999995 86.51600000000002 149.98299999999995 95.22100000000002 149.98299999999995 C 101.925 149.983 107.21 153.408 109.755 155.438 z M 74.409 120.485 C 74.542 105.94200000000001 88.631 90.425 93.13300000000001 86.505 C 94.94300000000001 88.324 98.43900000000001 92.66799999999999 99.367 99.76299999999999 C 100.555 108.89099999999999 96.876 119.47899999999998 88.775 130.73899999999998 C 88.31800000000001 131.30299999999997 87.876 131.878 87.426 132.44499999999996 C 87.851 125.89499999999997 88.557 119.30899999999997 89.57000000000001 112.77599999999997 C 89.795 111.30199999999996 88.786 109.92399999999996 87.31400000000001 109.69599999999997 C 85.82400000000001 109.46899999999997 84.46000000000001 110.47599999999997 84.236 111.95099999999996 C 83.013 119.82799999999996 82.233 127.77699999999996 81.846 135.65699999999995 C 76.802 131.578 74.35 126.586 74.409 120.485 z M 45.382 280.446 C 50.364999999999995 275.08700000000005 56.926 273.963 61.554 273.963 C 62.672000000000004 273.963 63.656 274.02700000000004 64.464 274.112 C 64.464 274.117 64.464 274.124 64.464 274.13 C 64.02799999999999 282.149 62.711 305.306 40.831 309.355 C 44.588 303.55600000000004 48.517 297.88800000000003 52.706 292.567 C 53.627 291.397 53.423 289.7 52.249 288.779 C 51.082 287.851 49.385000000000005 288.062 48.461000000000006 289.23199999999997 C 44.77100000000001 293.92299999999994 41.28900000000001 298.88899999999995 37.919000000000004 303.95399999999995 C 38.192 293.41 40.673 285.507 45.382 280.446 z M 68.505 210.008 C 72.65899999999999 210.008 76.21799999999999 211.143 78.323 212.006 C 78.309 212.048 78.29499999999999 212.092 78.28099999999999 212.136 C 75.90899999999999 218.962 68.698 239.737 49.09899999999999 239.73499999999999 C 48.02699999999999 239.73499999999999 46.91999999999999 239.66 45.79199999999999 239.539 C 51.01799999999999 234.96699999999998 56.383999999999986 230.57199999999997 61.90099999999999 226.57999999999998 C 63.10899999999999 225.707 63.37999999999999 224.01899999999998 62.50499999999999 222.81199999999998 C 61.633999999999986 221.60299999999998 59.94999999999999 221.33399999999997 58.737999999999985 222.20799999999997 C 53.89899999999999 225.70899999999997 49.18999999999998 229.52499999999998 44.557999999999986 233.46799999999996 C 49.388 218.093 57.565 210.008 68.505 210.008 z M 34.404 188.234 C 30.419000000000004 174.743 38.642 156.924 41.71 151.893 C 44.152 153.214 49.058 156.581 52.06 163.436 C 55.672000000000004 171.692 55.293 182.15800000000002 51.04 194.589 C 50.833 195.091 50.611 195.587 50.411 196.091 C 48.886 189.869 47.512 183.573 46.496 177.20000000000002 C 46.260000000000005 175.727 44.876000000000005 174.74 43.407000000000004 174.96 C 41.931000000000004 175.19500000000002 40.93000000000001 176.58 41.165000000000006 178.05100000000002 C 42.388000000000005 185.71200000000002 44.004000000000005 193.31500000000003 45.937000000000005 200.74200000000002 C 39.928 198.211 36.133 194.092 34.404 188.234 z M 15.525 263.277 C 8.307 251.707 11.02 232.85299999999998 12.492 227.18599999999998 C 15.307 227.807 21.126 229.73999999999998 25.916 235.53699999999998 C 31.472 242.266 33.96 252.045 33.44 264.59999999999997 C 33.366 265.275 33.306 265.95 33.239 266.62399999999997 C 30.058999999999997 261.135 26.993999999999996 255.53499999999997 24.229 249.76099999999997 C 23.586 248.41499999999996 21.977 247.84999999999997 20.63 248.49199999999996 C 19.284 249.13599999999997 18.715 250.74699999999996 19.361 252.09099999999995 C 22.686 259.03899999999993 26.407 265.77099999999996 30.319000000000003 272.29999999999995 C 23.699 271.536 18.829 268.575 15.525 263.277 z M 30.812 345.61 C 24.919 345.61 19.855 343.129 15.764000000000001 338.233 C 7.552000000000001 328.408 5.482000000000001 312.232 5.383000000000001 306.897 C 11.083000000000002 306.514 28.774 307.93 35.76 337.045 C 35.872 337.69800000000004 35.985 338.349 36.101 339.002 C 31.543 334.606 27.066 330.069 22.820999999999998 325.276 C 21.834 324.165 20.128999999999998 324.06 19.011999999999997 325.044 C 17.894 326.03499999999997 17.791999999999998 327.743 18.779999999999998 328.85699999999997 C 23.874999999999996 334.606 29.279999999999998 340.039 34.80799999999999 345.222 C 33.434 345.452 32.088 345.61 30.812 345.61 L 30.812 345.61 z M 50.449 416.863 C 33.532 416.863 22.406 392.686 20.339999999999996 385.64300000000003 C 22.019999999999996 385.02500000000003 24.894 384.216 28.467999999999996 384.216 C 36.4 384.216 47.327999999999996 388.13800000000003 57.372 405.105 C 57.878 406.15200000000004 58.377 407.20300000000003 58.897 408.24 C 53.274 405.25600000000003 47.711 402.034 42.289 398.583 C 41.031 397.781 39.365 398.15000000000003 38.564 399.41200000000003 C 37.763 400.67 38.135 402.336 39.393 403.13800000000003 C 45.926 407.29800000000006 52.663 411.136 59.466 414.62500000000006 C 56.398 416.09100000000007 53.38 416.86300000000006 50.456 416.86300000000006 C 50.453 416.863 50.449 416.863 50.449 416.863 z M 77.136 411.227 C 79.38499999999999 403.602 85.697 399.48699999999997 89.295 397.698 C 89.33 397.755 89.358 397.81 89.393 397.86699999999996 C 93.385 405.04999999999995 104.88 425.84399999999994 88.665 441.11199999999997 C 88.57400000000001 433.99999999999994 88.82300000000001 426.89399999999995 89.435 419.91499999999996 C 89.569 418.429 88.473 417.11699999999996 86.986 416.98699999999997 C 85.51400000000001 416.864 84.19200000000001 417.95399999999995 84.059 419.43699999999995 C 83.532 425.45899999999995 83.279 431.57499999999993 83.258 437.71 C 77.055 427.455 74.971 418.564 77.136 411.227 z M 52.741 346.805 C 57.162 340.205 64.447 338.097 68.126 337.437 C 68.129 337.454 68.13300000000001 337.471 68.13600000000001 337.486 C 69.91100000000002 345.34999999999997 74.98500000000001 368.066 55.12300000000001 378.11 C 57.116000000000014 371.461 59.326000000000015 364.87600000000003 61.89200000000001 358.53200000000004 C 62.45400000000001 357.15100000000007 61.78700000000001 355.57700000000006 60.40200000000001 355.01800000000003 C 59.03200000000001 354.459 57.45000000000001 355.12600000000003 56.888000000000005 356.50800000000004 C 54.629000000000005 362.09200000000004 52.657000000000004 367.862 50.830000000000005 373.689 C 47.856 362.204 48.478 353.173 52.741 346.805 z M 484.841 102.889 C 476.003 65.229 442.288 62.276999999999994 432.097 62.276999999999994 C 423.722 62.276999999999994 423.304 63.69499999999999 422.93199999999996 64.94699999999999 C 422.64 65.939 422.92499999999995 66.97899999999998 423.64899999999994 67.69299999999998 C 423.85299999999995 67.99499999999999 424.13399999999996 68.52199999999998 424.52399999999994 69.21899999999998 C 437.55799999999994 92.56599999999997 456.64699999999993 105.23299999999998 481.25299999999993 106.91899999999998 C 490.4599999999999 115.23099999999998 498.9609999999999 124.16699999999999 506.7059999999999 133.653 C 508.3089999999999 135.89499999999998 510.1259999999999 138.215 512.156 140.602 C 513.976 143.007 515.745 145.45000000000002 517.473 147.917 C 513.4209999999999 145.717 509.20699999999994 144.585 504.83599999999996 144.585 C 493.066 144.585 484.73199999999997 152.959 484.21099999999996 153.864 C 483.73299999999995 154.702 483.73299999999995 155.746 484.21799999999996 156.58100000000002 C 484.44699999999995 156.966 484.75899999999996 157.282 485.12499999999994 157.51100000000002 C 485.3809999999999 157.82800000000003 485.72599999999994 158.31700000000004 486.16499999999996 158.925 C 490.525 164.92000000000002 502.10499999999996 180.848 519.746 180.848 C 524.7579999999999 180.848 529.86 179.45200000000003 534.9449999999999 176.84900000000002 C 538.2979999999999 183.37800000000001 541.3549999999999 190.05700000000002 544.121 196.865 C 544.851 198.952 545.684 201.091 546.616 203.27100000000002 C 547.733 206.25600000000003 548.8149999999999 209.25900000000001 549.8199999999999 212.28900000000002 C 543.9019999999999 206.36900000000003 537.2669999999999 204.61 531.5529999999999 204.61 C 525.7819999999999 204.61 519.9779999999998 206.55800000000002 517.3069999999999 208.16500000000002 C 517.2439999999999 208.18900000000002 517.18 208.216 517.1179999999999 208.24500000000003 L 517.132 208.27500000000003 C 516.492 208.67300000000003 516.064 209.04800000000003 515.8839999999999 209.36100000000005 C 515.4029999999999 210.20100000000005 515.4099999999999 211.23400000000004 515.8989999999999 212.06900000000005 C 515.9799999999999 212.20200000000006 516.0639999999999 212.32700000000006 516.1629999999999 212.44300000000004 C 516.2959999999999 212.78400000000005 516.4649999999999 213.28300000000004 516.68 213.90500000000003 C 519.361 221.62900000000002 527.521 245.13200000000003 550.957 245.13200000000003 C 553.259 245.13200000000003 555.68 244.81300000000005 558.144 244.34500000000003 C 559.472 251.28300000000002 560.519 258.29100000000005 561.271 265.35900000000004 C 561.3979999999999 267.99600000000004 561.6329999999999 270.72800000000007 562.005 273.57500000000005 C 562.22 276.45500000000004 562.374 279.34200000000004 562.494 282.23600000000005 C 561.376 280.22 560.114 278.36800000000005 558.628 276.7710000000001 C 552.3240000000001 269.9890000000001 544.206 268.56500000000005 538.5060000000001 268.56500000000005 C 535.3080000000001 268.56500000000005 533.3900000000001 268.84100000000007 532.2090000000001 269.19800000000004 C 532.1740000000001 269.20500000000004 532.1310000000001 269.21200000000005 532.0930000000001 269.21900000000005 L 532.0960000000001 269.23500000000007 C 530.7470000000001 269.6690000000001 530.4380000000001 270.20900000000006 530.2550000000001 270.5230000000001 C 529.8260000000001 271.26900000000006 529.7800000000001 272.1720000000001 530.1210000000001 272.9510000000001 C 530.1530000000001 273.3010000000001 530.1740000000001 273.80000000000007 530.205 274.4220000000001 C 531.576 299.6940000000001 542.1750000000001 313.37200000000007 561.692 315.1820000000001 C 561.397 318.52400000000006 561.059 321.87000000000006 560.631 325.2220000000001 C 560.1809999999999 328.7370000000001 559.64 332.2220000000001 559.053 335.6910000000001 C 558.396 338.4430000000001 557.833 341.43700000000007 557.376 344.6450000000001 C 556.807 347.3970000000001 556.202 350.1270000000001 555.549 352.8400000000001 C 554.751 349.3430000000001 553.454 346.16300000000007 551.526 343.3980000000001 C 544.3389999999999 333.10800000000006 531.899 331.8880000000001 529.924 331.7650000000001 C 529.889 331.7580000000001 529.857 331.7580000000001 529.821 331.7550000000001 L 529.821 331.7580000000001 C 529.719 331.7510000000001 529.663 331.7510000000001 529.6560000000001 331.7510000000001 C 528.1940000000001 331.7510000000001 526.9920000000001 332.9140000000001 526.9540000000001 334.3730000000001 C 526.95 334.5310000000001 526.9570000000001 334.68200000000013 526.9780000000001 334.8330000000001 C 526.9150000000001 335.18500000000006 526.7950000000001 335.68000000000006 526.6550000000001 336.2950000000001 C 521.056 361.0800000000001 527.5060000000001 377.2460000000001 545.7650000000001 384.43300000000005 C 543.3510000000001 390.70200000000006 540.6690000000001 396.83400000000006 537.7740000000001 402.8430000000001 C 536.0550000000001 405.78800000000007 534.3720000000001 409.0640000000001 532.7420000000001 412.73300000000006 C 531.5290000000001 414.9820000000001 530.282 417.2060000000001 528.999 419.41300000000007 C 529.256 416.0080000000001 528.999 412.7580000000001 528.1 409.70400000000006 C 524.5400000000001 397.6290000000001 513.105 392.68100000000004 510.504 391.69300000000004 C 510.399 391.64700000000005 510.297 391.612 510.18800000000005 391.581 C 508.67300000000006 391.139 507.02600000000007 392.146 506.74800000000005 393.68600000000004 C 506.737 393.735 506.7300000000001 393.78400000000005 506.72400000000005 393.833 C 506.552 394.177 506.28200000000004 394.648 505.951 395.245 C 493.44100000000003 417.722 494.88800000000003 435.19100000000003 510.165 447.234 C 505.636 453.018 500.84200000000004 458.59799999999996 495.78900000000004 463.97499999999997 C 493.79300000000006 465.87199999999996 491.78900000000004 467.92499999999995 489.77900000000005 470.16099999999994 C 487.50800000000004 472.41299999999995 485.1890000000001 474.631 482.821 476.80299999999994 C 484.184 473.51399999999995 484.982 470.22799999999995 485.05600000000004 466.96299999999997 C 485.32300000000004 455.479 477.47600000000006 447.82099999999997 473.78900000000004 444.852 C 473.785 444.84799999999996 473.785 444.84499999999997 473.78200000000004 444.84499999999997 C 473.59200000000004 444.65599999999995 473.367 444.48999999999995 473.12500000000006 444.364 C 471.7710000000001 443.65799999999996 469.93700000000007 444.311 469.35400000000004 445.71 C 469.052 446.02 468.60200000000003 446.441 468.04100000000005 446.976 C 448.6700000000001 465.474 444.36500000000007 482.89 455.14700000000005 498.795 C 448.90900000000005 503.075 442.44300000000004 507.11 435.749 510.884 C 432.059 512.649 428.25300000000004 514.7040000000001 424.317 517.097 C 424.26 517.132 424.229 517.182 424.176 517.22 C 424.049 517.312 423.941 517.413 423.83099999999996 517.527 C 423.69699999999995 517.6600000000001 423.58199999999994 517.798 423.479 517.952 C 423.406 518.068 423.342 518.181 423.286 518.306 C 423.198 518.503 423.142 518.7 423.103 518.9100000000001 C 423.08500000000004 518.9950000000001 423.04 519.065 423.03000000000003 519.1490000000001 C 423.03000000000003 519.1910000000001 423.048 519.2330000000001 423.04400000000004 519.2760000000001 C 423.03700000000003 519.494 423.07200000000006 519.7120000000001 423.11400000000003 519.9290000000001 C 423.13800000000003 520.0480000000001 423.14200000000005 520.171 423.184 520.287 C 423.19100000000003 520.311 423.18800000000005 520.34 423.19800000000004 520.368 C 427.552 531.7220000000001 436.095 537.724 447.903 537.724 C 465.713 537.724 488.44300000000004 523.3090000000001 489.595 519.451 C 489.87600000000003 518.523 489.60900000000004 517.447 488.96900000000005 516.73 L 488.99700000000007 516.703 C 483.5710000000001 508.191 474.47600000000006 503.5 463.3930000000001 503.5 C 461.37200000000007 503.5 459.26400000000007 503.704 457.11000000000007 504.006 C 458.1650000000001 503.29299999999995 459.1980000000001 502.551 460.23800000000006 501.82 C 460.32200000000006 501.774 460.40700000000004 501.743 460.48400000000004 501.69 C 460.49800000000005 501.682 460.51200000000006 501.675 460.526 501.669 C 460.76800000000003 501.493 460.97200000000004 501.317 461.214 501.142 C 471.454 493.896 481.055 485.989 489.978 477.485 C 495.39300000000003 483.262 501.663 486.208 508.663 486.208 C 528.989 486.208 547.924 461.44300000000004 548.647 457.922 C 548.855 456.913 548.4440000000001 455.76800000000003 547.6640000000001 455.09700000000004 L 547.6750000000001 455.086 C 545.306 452.93600000000004 538.7030000000001 447.93100000000004 528.5580000000001 447.93100000000004 C 523.7440000000001 447.93100000000004 518.8480000000001 449.04900000000004 513.9000000000001 451.242 C 522.1060000000001 440.833 529.4470000000001 429.79200000000003 535.8990000000001 418.202 C 540.4850000000001 420.848 545.0860000000001 422.265 549.6110000000001 422.265 C 572.1090000000002 422.265 584.9320000000001 389.82599999999996 585.4280000000001 384.67699999999996 C 585.589 383.02899999999994 584.8060000000002 382.10499999999996 584.0080000000002 381.655 L 584.0080000000002 381.655 C 583.9580000000002 381.62699999999995 578.9760000000001 378.823 571.5890000000002 378.823 C 565.5660000000001 378.823 558.1090000000002 380.664 550.5420000000001 387.039 C 555.1630000000001 375.126 558.9200000000002 362.77 561.7560000000002 350.04499999999996 C 564.3500000000003 350.68199999999996 566.8620000000002 351.01199999999994 569.2480000000002 351.01199999999994 C 578.6840000000002 351.01199999999994 586.5870000000002 345.95799999999997 592.0980000000002 336.40799999999996 C 599.4080000000001 323.74999999999994 600.9530000000002 305.71899999999994 599.5130000000001 303.22599999999994 C 599.1610000000002 302.6189999999999 598.5500000000002 302.14399999999995 597.8750000000001 301.93299999999994 L 597.8750000000001 301.92599999999993 C 597.2530000000002 301.7389999999999 595.5060000000001 301.46199999999993 593.2390000000001 301.46199999999993 C 587.2130000000002 301.46199999999993 575.6580000000001 303.3809999999999 567.0120000000002 316.3619999999999 C 567.1110000000002 315.24799999999993 567.1990000000002 314.1329999999999 567.2860000000002 313.0189999999999 C 567.2900000000002 312.9739999999999 567.3140000000002 312.9389999999999 567.3210000000001 312.8889999999999 C 567.3360000000001 312.6779999999999 567.3320000000001 312.4889999999999 567.3450000000001 312.2779999999999 C 568.2170000000001 300.7299999999999 568.3360000000001 289.2279999999999 567.7000000000002 277.8389999999999 C 577.4340000000002 277.4449999999999 584.7290000000002 273.4219999999999 589.3370000000002 265.76999999999987 C 593.7750000000002 258.40499999999986 594.7060000000002 249.08999999999986 594.7060000000002 242.57499999999987 C 594.7060000000002 242.36399999999986 594.6460000000003 221.5119999999999 589.2560000000002 221.5119999999999 C 589.1510000000002 221.5119999999999 589.0450000000002 221.5179999999999 588.9400000000002 221.5299999999999 C 587.2530000000002 221.66599999999988 577.9760000000001 222.8159999999999 570.4030000000001 231.6019999999999 C 567.3910000000002 235.0959999999999 565.1350000000001 239.2859999999999 563.5860000000001 244.1019999999999 C 561.1860000000001 231.3579999999999 557.8400000000001 218.8589999999999 553.5920000000001 206.7059999999999 C 567.3280000000001 202.1139999999999 573.7520000000001 190.8379999999999 571.7250000000001 174.65499999999992 C 570.4630000000002 164.59699999999992 563.5050000000001 145.8919999999999 559.1410000000002 145.8919999999999 C 558.8280000000002 145.8919999999999 558.5010000000002 145.95299999999992 558.1990000000002 146.0589999999999 C 556.0730000000002 146.76199999999992 548.4930000000002 150.5349999999999 543.8680000000002 159.5589999999999 C 541.4970000000002 164.1949999999999 540.2840000000002 169.4159999999999 540.1570000000002 175.1629999999999 C 539.6860000000001 174.2439999999999 539.1910000000001 173.3409999999999 538.7100000000002 172.42799999999988 C 538.6820000000001 172.3229999999999 538.6290000000001 172.23099999999988 538.5830000000002 172.1309999999999 C 538.5560000000002 172.05899999999988 538.5560000000002 171.97999999999988 538.5170000000002 171.90899999999988 C 538.0640000000002 171.06199999999987 537.6000000000001 170.2559999999999 537.1360000000002 169.4469999999999 C 531.8710000000002 159.7269999999999 525.9680000000002 150.35099999999989 519.4460000000001 141.37999999999988 C 529.5100000000001 134.40899999999988 533.1620000000001 124.42799999999988 529.8550000000001 112.26899999999988 C 525.7010000000001 96.99499999999988 510.37900000000013 80.45599999999988 506.76600000000013 80.45599999999988 C 506.39000000000016 80.45599999999988 505.99400000000014 80.54199999999987 505.63500000000016 80.69799999999988 L 505.63500000000016 80.69499999999988 C 505.56100000000015 80.72599999999989 505.4800000000002 80.76699999999988 505.3890000000002 80.81799999999988 C 505.33200000000016 80.84899999999989 505.2730000000002 80.88399999999989 505.2200000000002 80.91999999999989 C 503.2100000000002 82.17299999999989 497.8260000000002 87.41599999999988 495.8300000000002 96.3019999999999 C 494.7970000000002 100.9099999999999 494.6140000000002 107.0169999999999 496.8520000000002 114.49999999999989 C 492.99 110.509 488.991 106.631 484.841 102.889 z M 429.883 67.729 C 430.536 67.695 431.27799999999996 67.67399999999999 432.097 67.67399999999999 C 440.495 67.67399999999999 466.62699999999995 69.907 477.096 96.18299999999999 C 470.774 90.931 464.16700000000003 85.939 457.343 81.3 C 456.113 80.462 454.433 80.779 453.593 82.014 C 452.75300000000004 83.247 453.076 84.925 454.30600000000004 85.76299999999999 C 461.09600000000006 90.38099999999999 467.67400000000004 95.35 473.951 100.582 C 455.325 97.19 440.523 86.182 429.883 67.729 z M 463.394 508.896 C 472.11 508.896 479.046 512.143 483.559 518.307 C 478.958 521.926 462.579 532.326 447.904 532.326 C 439.76099999999997 532.326 433.931 529.047 430.15 522.416 C 437.50199999999995 522.988 444.917 523.3470000000001 452.328 523.3470000000001 C 453.572 523.3470000000001 454.816 523.3370000000001 456.05699999999996 523.3230000000001 C 457.54599999999994 523.3020000000001 458.74199999999996 522.0790000000001 458.71999999999997 520.589 C 458.702 519.11 457.49699999999996 517.926 456.022 517.926 C 456.014 517.926 456.001 517.926 455.98699999999997 517.926 C 449.03599999999994 518.0250000000001 442.049 517.8340000000001 435.11199999999997 517.409 C 436.222 516.805 437.323 516.189 438.41999999999996 515.571 C 447.756 511.143 456.123 508.896 463.394 508.896 z M 471.769 450.874 C 471.88800000000003 450.762 472.004 450.649 472.117 450.54400000000004 C 475.307 453.53800000000007 479.841 459.17500000000007 479.66200000000003 466.83500000000004 C 479.47900000000004 474.72900000000004 474.44300000000004 482.98 464.74 491.44100000000003 C 466.77500000000003 485.47400000000005 468.564 479.451 470.026 473.427 C 470.378 471.98 469.488 470.51800000000003 468.041 470.166 C 466.593 469.828 465.131 470.707 464.779 472.155 C 463.043 479.30899999999997 460.85699999999997 486.46799999999996 458.292 493.517 C 447.488 474.152 465.523 456.838 471.769 450.874 z M 528.558 453.327 C 535.217 453.327 539.968 455.941 542.639 457.931 C 538.942 463.37 523.62 480.808 508.663 480.808 C 503.892 480.808 499.491 478.995 495.534 475.404 C 503.35699999999997 473.872 511.193 471.96999999999997 518.904 469.697 C 520.331 469.275 521.149 467.774 520.727 466.344 C 520.302 464.917 518.79 464.098 517.3779999999999 464.52 C 511.03099999999995 466.393 504.5929999999999 468.002 498.1549999999999 469.366 C 498.6959999999999 468.804 499.2089999999999 468.227 499.74299999999994 467.662 C 509.729 458.289 519.564 453.327 528.558 453.327 z M 531.921 337.485 C 531.928 337.47 531.928 337.457 531.9350000000001 337.44300000000004 C 535.6460000000001 338.107 542.9100000000001 340.21900000000005 547.32 346.80400000000003 C 551.58 353.172 552.205 362.20300000000003 549.2320000000001 373.68800000000005 C 547.4010000000001 367.862 545.4290000000001 362.09100000000007 543.1690000000001 356.50700000000006 C 542.6100000000001 355.12500000000006 541.0400000000001 354.4580000000001 539.6550000000001 355.01700000000005 C 538.2740000000001 355.5760000000001 537.6060000000001 357.15000000000003 538.1650000000001 358.53100000000006 C 540.734 364.87500000000006 542.94 371.46000000000004 544.936 378.10900000000004 C 525.075 368.065 530.146 345.35 531.921 337.485 z M 510.667 397.866 C 510.698 397.80899999999997 510.72999999999996 397.75399999999996 510.762 397.693 C 514.346 399.47499999999997 520.672 403.59299999999996 522.924 411.226 C 525.0849999999999 418.564 523.005 427.455 516.799 437.709 C 516.781 431.573 516.528 425.458 515.9979999999999 419.436 C 515.8679999999999 417.953 514.5669999999999 416.863 513.0699999999999 416.986 C 511.58699999999993 417.116 510.49099999999993 418.42699999999996 510.6209999999999 419.914 C 511.23599999999993 426.893 511.48099999999994 433.99899999999997 511.3909999999999 441.111 C 495.176 425.843 506.671 405.049 510.667 397.866 z M 571.589 384.217 C 575.166 384.217 578.041 385.029 579.7170000000001 385.644 C 577.6510000000001 392.687 566.5290000000001 416.86400000000003 549.6110000000001 416.86400000000003 C 546.6800000000001 416.86400000000003 543.6590000000001 416.09200000000004 540.594 414.62600000000003 C 547.397 411.13700000000006 554.134 407.29900000000004 560.667 403.139 C 561.9250000000001 402.337 562.294 400.671 561.496 399.413 C 560.694 398.151 559.021 397.79 557.7669999999999 398.584 C 552.3439999999999 402.035 546.785 405.257 541.1629999999999 408.241 C 541.6829999999999 407.204 542.1819999999999 406.15299999999996 542.6839999999999 405.106 C 552.731 388.135 563.66 384.217 571.589 384.217 z M 594.677 306.897 C 594.578 312.235 592.505 328.418 584.289 338.23699999999997 C 579.312 344.18999999999994 572.952 346.503 565.249 345.22299999999996 C 570.7760000000001 340.04299999999995 576.186 334.60999999999996 581.28 328.85799999999995 C 582.264 327.74399999999997 582.1659999999999 326.03599999999994 581.049 325.04499999999996 C 579.932 324.06199999999995 578.227 324.16599999999994 577.239 325.277 C 572.994 330.07 568.517 334.60699999999997 563.956 339.003 C 564.075 338.354 564.1850000000001 337.703 564.297 337.05 C 571.286 307.928 588.987 306.539 594.677 306.897 z M 521.778 212.141 C 521.764 212.09699999999998 521.7470000000001 212.052 521.729 212.00799999999998 C 523.837 211.14499999999998 527.4010000000001 210.00799999999998 531.5540000000001 210.00799999999998 C 542.4910000000001 210.00799999999998 550.671 218.093 555.4960000000001 233.46699999999998 C 550.868 229.52499999999998 546.1550000000001 225.70799999999997 541.3160000000001 222.207 C 540.1140000000001 221.334 538.4230000000001 221.60299999999998 537.5480000000001 222.811 C 536.6770000000001 224.018 536.9440000000001 225.70600000000002 538.1520000000002 226.579 C 543.6700000000002 230.571 549.0360000000002 234.966 554.2610000000002 239.538 C 553.1360000000002 239.65900000000002 552.0260000000002 239.734 550.9540000000002 239.734 C 531.365 239.734 524.147 218.966 521.778 212.141 z M 535.597 274.13 C 535.597 274.124 535.597 274.117 535.597 274.112 C 539.7429999999999 273.684 548.4929999999999 273.798 554.679 280.446 C 559.384 285.507 561.866 293.41 562.139 303.95300000000003 C 558.769 298.889 555.2860000000001 293.92300000000006 551.597 289.23100000000005 C 550.672 288.06100000000004 548.9789999999999 287.8500000000001 547.808 288.7780000000001 C 546.638 289.69900000000007 546.434 291.3960000000001 547.355 292.5660000000001 C 551.541 297.8870000000001 555.4730000000001 303.55500000000006 559.226 309.3540000000001 C 537.347 305.306 536.032 282.148 535.597 274.13 z M 574.14 235.537 C 578.961 229.703 584.824 227.784 587.5649999999999 227.175 C 589.0369999999999 232.827 591.7529999999999 251.704 584.5319999999999 263.281 C 581.2249999999999 268.579 576.3609999999999 271.539 569.7409999999999 272.302 C 573.6479999999999 265.773 577.3699999999999 259.04 580.6979999999999 252.092 C 581.3419999999999 250.74800000000002 580.7749999999999 249.137 579.4259999999998 248.49300000000002 C 578.0869999999998 247.85000000000002 576.4749999999998 248.41800000000003 575.8279999999999 249.76200000000003 C 573.0649999999998 255.53600000000003 570.0009999999999 261.136 566.8169999999999 266.625 C 566.7539999999999 265.95 566.6899999999999 265.273 566.6199999999999 264.599 C 566.1 252.043 568.588 242.265 574.14 235.537 z M 548.001 163.437 C 551.03 156.52100000000002 556 153.15400000000002 558.34 151.87800000000001 C 561.398 156.88400000000001 569.642 174.729 565.6560000000001 188.234 C 563.927 194.091 560.129 198.211 554.119 200.743 C 556.056 193.315 557.673 185.713 558.895 178.052 C 559.126 176.581 558.125 175.197 556.653 174.96099999999998 C 555.191 174.72899999999998 553.796 175.72699999999998 553.5600000000001 177.201 C 552.5440000000001 183.57399999999998 551.1740000000001 189.87 549.6450000000001 196.09199999999998 C 549.445 195.588 549.224 195.09199999999998 549.0200000000001 194.58999999999997 C 544.765 182.158 544.386 171.692 548.001 163.437 z M 490.534 155.751 C 490.453 155.644 490.379 155.54 490.305 155.43800000000002 C 492.849 153.40900000000002 498.134 149.984 504.836 149.984 C 513.54 149.984 521.739 155.68200000000002 529.274 166.948 C 523.693 164.419 518.039 162.09300000000002 512.367 160.044 C 510.962 159.524 509.419 160.26100000000002 508.917 161.66400000000002 C 508.407 163.066 509.135 164.61200000000002 510.53299999999996 165.11900000000003 C 517.084 167.48700000000002 523.6129999999999 170.21800000000002 530.0219999999999 173.23300000000003 C 526.5429999999999 174.68400000000003 523.103 175.45200000000003 519.747 175.45200000000003 C 504.857 175.451 494.452 161.14 490.534 155.751 z M 500.693 99.763 C 501.63399999999996 92.555 505.226 88.18900000000001 506.899 86.48100000000001 C 511.366 90.35700000000001 525.513 105.912 525.651 120.48600000000002 C 525.707 126.58700000000002 523.255 131.579 518.2139999999999 135.657 C 517.827 127.77700000000002 517.044 119.828 515.824 111.95100000000001 C 515.5949999999999 110.47600000000001 514.2149999999999 109.47000000000001 512.746 109.69600000000001 C 511.27 109.92500000000001 510.262 111.302 510.49 112.77600000000001 C 511.502 119.30900000000001 512.205 125.89500000000001 512.634 132.44500000000002 C 512.181 131.88000000000002 511.74100000000004 131.30300000000003 511.284 130.73900000000003 C 503.185 119.479 499.506 108.891 500.693 99.763 z" stroke-linecap="round" />
</g>
<g transform="matrix(0.7018763324 0 0 0.7018763324 320 320)" id="mIV-kX5ojbXHRyO3k00Ax"  >
<path style="stroke: none; stroke-width: 1; stroke-dasharray: none; stroke-linecap: butt; stroke-dashoffset: 0; stroke-linejoin: miter; stroke-miterlimit: 4; fill: rgb(65,64,66); fill-rule: nonzero; opacity: 1;" vector-effect="non-scaling-stroke"  transform=" translate(-299.9996203076, -299.999929919)" d="M 459.229 300.785 C 459.20799999999997 300.793 455.611 301.899 455.614 301.872 C 455.68699999999995 300.995 457.123 291.288 457.236 291.16 C 460.654 292.913 462.239 291.708 465.64099999999996 291.636 C 465.92299999999994 291.848 462.061 290.10200000000003 462.22099999999995 289.92600000000004 C 466.61099999999993 291.30000000000007 469.50299999999993 292.17500000000007 472.01899999999995 294.10300000000007 C 471.67199999999997 290.92600000000004 472.381 292.37100000000004 476.1569999999999 293.62000000000006 C 475.5809999999999 292.66900000000004 474.51899999999995 292.41200000000003 473.3549999999999 292.3140000000001 C 474.4459999999999 292.36000000000007 477.3999999999999 292.19200000000006 478.4059999999999 291.8740000000001 C 478.3279999999999 291.36500000000007 478.2439999999999 291.0130000000001 478.1609999999999 290.7290000000001 C 478.32799999999986 290.6280000000001 478.5269999999999 290.4690000000001 478.7769999999999 290.1880000000001 C 478.70599999999985 289.9440000000001 478.76999999999987 289.7900000000001 478.96699999999987 289.7290000000001 C 478.99699999999984 289.5850000000001 477.06799999999987 290.0000000000001 477.36399999999986 289.1820000000001 C 481.01799999999986 287.6760000000001 486.51799999999986 281.37200000000007 490.17699999999985 279.5250000000001 C 490.08799999999985 279.3310000000001 490.12699999999984 277.6000000000001 489.8389999999998 277.0800000000001 C 492.7529999999998 277.0970000000001 496.7219999999998 270.9880000000001 496.57399999999984 271.1560000000001 C 496.6999999999998 271.10200000000015 499.39299999999986 270.79500000000013 500.45599999999985 271.0390000000001 C 500.51899999999983 267.6700000000001 501.2839999999998 265.3120000000001 503.46599999999984 266.0180000000001 C 503.13699999999983 264.7120000000001 503.85299999999984 262.8330000000001 504.84799999999984 260.8590000000001 C 504.89799999999985 260.9100000000001 504.92299999999983 260.9540000000001 505.03299999999984 261.0230000000001 C 504.92399999999986 260.92800000000005 504.92499999999984 260.8590000000001 504.88699999999983 260.78100000000006 C 506.8949999999998 256.82200000000006 509.9959999999998 252.50100000000006 508.1139999999998 251.62800000000007 C 522.7669999999998 250.13500000000008 528.9529999999997 201.7030000000001 502.5499999999998 196.72400000000007 C 495.3239999999998 190.52900000000008 477.7629999999998 211.30000000000007 476.48599999999976 210.61300000000008 C 475.6939999999998 211.8360000000001 470.44999999999976 219.58700000000007 467.77199999999976 222.76200000000009 C 466.59199999999976 226.71400000000008 463.80299999999977 235.9180000000001 461.0959999999998 236.90800000000007 C 459.0669999999998 233.87100000000007 457.9029999999998 233.14800000000008 457.74799999999976 229.71900000000008 C 454.7879999999998 228.28800000000007 449.3749999999998 216.20800000000008 445.46699999999976 212.85600000000008 C 434.77899999999977 203.68800000000007 426.84999999999974 196.83300000000008 409.57799999999975 209.03800000000007 C 399.02099999999973 216.49800000000008 407.07699999999977 223.84900000000007 402.62799999999976 228.52200000000008 C 401.60699999999974 227.70100000000008 405.32499999999976 248.05000000000007 407.68999999999977 255.89800000000008 C 415.2759999999998 265.85100000000006 416.71699999999976 280.7180000000001 431.79599999999976 297.05000000000007 C 442.534 308.963 452.165 308.403 459.229 300.785 z M 411.59 367.396 C 412.303 363.928 410.71999999999997 356.868 410.81899999999996 352.879 C 403.57399999999996 321.297 374.191 339.781 366.417 350.047 C 366.65999999999997 347.63100000000003 362.57199999999995 344.41400000000004 365.44899999999996 342.569 C 364.32599999999996 341.875 363.31999999999994 340.613 362.42499999999995 339.115 C 362.609 339.05 362.7289999999999 338.982 362.525 338.883 C 362.472 338.957 362.45599999999996 339.03299999999996 362.42199999999997 339.109 C 360.07399999999996 335.179 358.55199999999996 329.47799999999995 358.19199999999995 327.017 C 343.00299999999993 319.328 345.06499999999994 307.082 315.95599999999996 310.163 C 298.59399999999994 322.122 307.55299999999994 345.01800000000003 304.65999999999997 347.115 C 307.645 347.982 309.393 356.26800000000003 308.72999999999996 356.772 C 309.43199999999996 357.88599999999997 313.62499999999994 365.411 314.94699999999995 369.26599999999996 C 326.02899999999994 379.073 334.3179999999999 402.066 356.81699999999995 423.49499999999995 C 365.9309999999999 421.45599999999996 369.52299999999997 415.43199999999996 376.25499999999994 413.25299999999993 C 376.2049999999999 413.00499999999994 376.46099999999996 411.4439999999999 376.27099999999996 410.8709999999999 C 379.05699999999996 411.25999999999993 383.58699999999993 406.1019999999999 383.299 406.3039999999999 C 383.484 406.2569999999999 386.042 406.3589999999999 387.109 406.7639999999999 C 387.46099999999996 403.4099999999999 388.445 401.4379999999999 390.47999999999996 402.3729999999999 C 390.24999999999994 401.0689999999999 391.08399999999995 399.3559999999999 392.19899999999996 397.59499999999986 C 392.24299999999994 397.6539999999999 392.275 397.70799999999986 392.39399999999995 397.79699999999985 C 392.27799999999996 397.67999999999984 392.27699999999993 397.60199999999986 392.24799999999993 397.5169999999999 C 394.5059999999999 393.9689999999999 397.86099999999993 390.2329999999999 396.0109999999999 389.1879999999999 C 405.661 389.237 406.563 372.762 411.59 367.396 z M 302.648 263.442 C 326.99600000000004 250.364 286.99300000000005 225.81900000000002 286.33700000000005 224.74900000000002 C 277.00300000000004 229.98300000000003 270.77700000000004 231.836 256.869 237.86300000000003 C 255.14100000000002 240.65900000000002 249.82600000000002 248.62000000000003 249.40900000000002 249.95900000000003 C 248.85200000000003 249.13900000000004 248.455 249.02500000000003 248.21500000000003 249.62100000000004 C 246.47800000000004 246.75800000000004 244.14900000000003 241.46400000000003 242.57200000000003 242.32400000000004 C 247.82000000000002 233.23600000000005 233.74800000000002 223.18900000000005 231.96500000000003 215.11400000000003 C 227.94300000000004 210.30600000000004 220.52900000000002 206.48900000000003 214.12100000000004 206.15000000000003 C 184.24200000000005 207.37400000000002 199.35700000000003 225.09500000000003 194.28700000000003 232.57800000000003 C 193.29800000000003 231.88200000000003 195.01800000000003 242.40900000000002 193.99400000000003 242.88600000000002 C 194.44100000000003 244.08200000000002 197.09100000000004 252.01600000000002 197.33800000000002 256.166 C 198.31700000000004 257.37 202.25500000000002 263.064 198.853 263.121 C 205.309 267.486 210.162 323.788 235.84300000000002 311.063 C 235.776 311.061 232.114 310.791 232.096 310.82099999999997 C 232.68800000000002 309.59999999999997 239.263 302.24399999999997 237.984 301.47299999999996 C 238.425 301.47499999999997 236.882 300.75699999999995 236.919 300.60699999999997 C 237.192 301.18199999999996 236.76600000000002 301.222 235.633 300.729 C 238.424 298.796 239.54500000000002 303.50399999999996 241.71200000000002 303.11199999999997 C 240.80300000000003 303.311 240.86800000000002 303.36799999999994 241.91400000000002 303.284 C 240.996 304.478 240.193 305.192 238.37900000000002 305.779 C 236.18400000000003 305.964 246.86400000000003 309.843 246.87500000000003 309.757 C 246.99200000000002 309.62 247.02500000000003 309.543 247.09700000000004 309.439 C 247.34900000000005 309.52500000000003 247.71200000000005 309.591 248.38500000000005 309.583 C 250.50800000000004 307.209 258.398 304.27200000000005 263.16600000000005 303.757 C 263.1700000000001 303.499 263.74500000000006 301.997 263.66700000000003 301.403 C 266.396 302.38300000000004 271.81300000000005 297.982 271.603 298.11 C 271.761 298.096 274.36400000000003 298.647 275.326 299.21500000000003 C 276.30600000000004 295.96700000000004 277.649 294.05800000000005 279.52500000000003 295.32300000000004 C 279.52500000000003 294.009 280.67100000000005 292.39500000000004 282.09900000000005 290.75700000000006 C 282.13300000000004 290.82300000000004 282.1580000000001 290.88200000000006 282.25700000000006 290.9890000000001 C 282.1650000000001 290.8560000000001 282.17500000000007 290.7780000000001 282.16100000000006 290.68700000000007 C 285.02500000000003 287.41600000000005 288.98300000000006 284.05800000000005 287.29200000000003 282.7630000000001 C 299.545 284.38 296.572 266.735 302.648 263.442 z M 540.172 429.292 C 537.908 418.86499999999995 534.4490000000001 408.54699999999997 531.619 398.26599999999996 C 527.234 402.18899999999996 518.347 405.58599999999996 515.589 407.89899999999994 C 507.23400000000004 412.92699999999996 505.26900000000006 413.16499999999996 495.58500000000004 419.5659999999999 C 493.66200000000003 416.53399999999993 493.33700000000005 415.5469999999999 493.83900000000006 412.8499999999999 C 491.20900000000006 411.0189999999999 491.87700000000007 410.0949999999999 492.7250000000001 406.3429999999999 C 484.12000000000006 394.1579999999999 476.8250000000001 390.1579999999999 459.74500000000006 384.5329999999999 C 428.84000000000003 391.3569999999999 443.55500000000006 410.3229999999999 438.07400000000007 418.3069999999999 C 436.48800000000006 417.4809999999999 439.5200000000001 427.9219999999999 438.21100000000007 428.6359999999999 C 438.77400000000006 430.0349999999999 441.9430000000001 438.8719999999999 442.92300000000006 443.00999999999993 C 448.17600000000004 450.6429999999999 447.06100000000004 452.4649999999999 451.16800000000006 461.3689999999999 C 458.3810000000001 477.0069999999999 490.00200000000007 502.6489999999999 489.10800000000006 499.0909999999999 C 489.51300000000003 499.4419999999999 491.69500000000005 498.4769999999999 492.14400000000006 498.7959999999999 C 492.20500000000004 498.25599999999986 492.37200000000007 497.2619999999999 492.24800000000005 496.8029999999999 C 494.922 497.3429999999999 499.56600000000003 492.8359999999999 499.22200000000004 493.0329999999999 C 499.511 492.9959999999999 501.79600000000005 493.3079999999999 502.896 493.8419999999999 C 503.96000000000004 491.2509999999999 503.981 488.6099999999999 506.369 489.99099999999993 C 506.206 488.66799999999995 507.105 487.13899999999995 508.29 485.6139999999999 C 508.329 485.6769999999999 508.36400000000003 485.73799999999994 508.482 485.84399999999994 C 508.37 485.71099999999996 508.37 485.6309999999999 508.348 485.53999999999996 C 510.779 482.436 514.351 479.36499999999995 512.585 478.10699999999997 C 526.577 480.034 530.7560000000001 443.255 535.428 443.897 C 533.025 441.685 536.972 436.53499999999997 537.612 436.617 C 535.27 435.054 536.609 431.653 540.172 429.292 z M 495.752 460.539 C 495.704 460.442 495.351 463.32599999999996 495.993 465.122 C 493.968 462.726 496.661 461.42900000000003 494.661 459.908 C 495.44 459.812 496.147 460.05400000000003 496.782 460.635 C 496.691 461.702 496.349 461.672 495.752 460.539 z M 176.51 338.408 C 158.57299999999998 331.02700000000004 153.649 333.07800000000003 136.894 345.91200000000003 C 136.51000000000002 347.36 134.198 353.812 132.177 351.09400000000005 C 132.41 355.9680000000001 132.408 356.3910000000001 129.21599999999998 357.79200000000003 C 127.67899999999997 356.64500000000004 125.18699999999998 347.718 125.02099999999999 346.473 C 121.84299999999999 345.115 106.98899999999999 326.937 102.95999999999998 320.94 C 85.10599999999998 311.252 72.57299999999998 320.262 65.31999999999998 331.033 C 63.70799999999998 333.42900000000003 65.27799999999998 353.185 63.63199999999998 354.63300000000004 C 65.32199999999997 357.36800000000005 71.47299999999997 366.25700000000006 73.65299999999998 370.67 C 75.06299999999997 371.493 80.65699999999998 375.00300000000004 77.52299999999998 376.322 C 76.68799999999999 376.139 106.66599999999998 410.193 119.67199999999998 417.311 L 119.60599999999998 417.32099999999997 C 119.62099999999998 417.34299999999996 119.68799999999997 417.31699999999995 119.71199999999997 417.33099999999996 C 122.31399999999998 418.74899999999997 124.21099999999997 419.04999999999995 125.05699999999997 417.799 C 125.03599999999997 417.873 125.18099999999997 418.07899999999995 125.53199999999997 418.44899999999996 C 125.15699999999997 418.21999999999997 118.99699999999997 419.92699999999996 123.23999999999997 423.71899999999994 C 123.41699999999997 423.93699999999995 119.05599999999997 420.84799999999996 118.78799999999997 420.56899999999996 C 118.48699999999997 421.13699999999994 118.45699999999997 421.55499999999995 118.53399999999996 421.84999999999997 C 118.31099999999996 421.722 118.02199999999996 421.57699999999994 117.62599999999996 421.41099999999994 C 117.88399999999996 422.65299999999996 118.58699999999996 423.59999999999997 119.73999999999997 424.24899999999997 C 119.68999999999997 424.39599999999996 116.70899999999996 424.917 122.35099999999997 426.635 C 120.36999999999998 424.30899999999997 121.88799999999998 425.113 123.21999999999997 425.805 C 123.80999999999997 424.508 124.88199999999998 423.13 125.33199999999997 424.098 C 128.88499999999996 424.338 127.44699999999996 425.354 131.12699999999995 425.862 C 130.21599999999995 422.309 131.91199999999995 426.92400000000004 131.35899999999995 421.863 C 135.03899999999996 428.648 132.08499999999995 416.697 134.93699999999995 422.931 C 134.76699999999997 423.131 134.74199999999996 423.426 135.16599999999997 423.445 C 135.22099999999998 423.573 135.26399999999998 423.658 135.32399999999996 423.799 C 135.35399999999996 423.633 135.34399999999997 423.554 135.34999999999997 423.435 C 135.61699999999996 423.403 135.95899999999997 423.314 136.51399999999995 423.056 C 137.12799999999996 420.32599999999996 142.46499999999995 414.546 146.82699999999994 413.04499999999996 C 146.73599999999993 412.78 146.72599999999994 411.34499999999997 146.45799999999994 410.81199999999995 C 149.15999999999994 410.80499999999995 152.70199999999994 405.6809999999999 152.45599999999993 405.92599999999993 C 152.77699999999993 405.83199999999994 154.97699999999992 405.76499999999993 156.17999999999992 406.11099999999993 C 156.73799999999991 403.3949999999999 156.29499999999993 400.93199999999996 158.85499999999993 401.91599999999994 C 158.44899999999993 400.62399999999997 159.06699999999992 399.04299999999995 159.98199999999994 397.44399999999996 C 160.02599999999995 397.503 160.08199999999994 397.56199999999995 160.22099999999995 397.655 C 160.08099999999996 397.534 160.06499999999994 397.44899999999996 160.02999999999994 397.35999999999996 C 161.92399999999995 394.08399999999995 165.01599999999993 390.756 163.09899999999993 389.71999999999997 C 183.311 390.257 176.05 347.922 176.51 338.408 z M 125.072 417.771 C 125.15 417.652 125.22 417.52000000000004 125.28 417.373 C 125.419 417.563 125.602 417.80199999999996 125.862 418.123 C 125.399 417.848 125.146 417.737 125.072 417.771 z M 129.502 413.484 C 130.15 413.93899999999996 130.77700000000002 414.33299999999997 130.953 414.34499999999997 C 130.07 413.905 128.472 415.039 129.502 413.484 z M 262.47 126.006 C 244.23700000000002 131.538 270.08000000000004 167.191 276.249 175.03 C 275.11100000000005 174.27 338.91600000000005 223.96 340.76700000000005 215.649 C 340.81500000000005 215.778 340.85100000000006 215.899 340.773 215.88400000000001 C 340.704 215.85600000000002 340.663 215.86800000000002 340.648 215.92100000000002 C 341.762 216.13800000000003 341.89000000000004 215.54100000000003 341.144 214.222 C 341.146 214.119 341.109 213.889 341.009 213.452 C 344.663 215.083 343.702 214.324 346.737 216.355 C 346.81800000000004 212.755 347.355 217.259 348.136 212.10399999999998 C 349.98100000000005 219.41 350.44800000000004 207.12499999999997 351.61600000000004 213.778 C 351.61100000000005 213.84099999999998 351.61400000000003 213.90099999999998 351.648 213.965 C 351.687 214.20000000000002 351.72400000000005 214.394 351.76700000000005 214.674 C 351.8190000000001 214.442 351.82800000000003 214.30100000000002 351.8430000000001 214.148 C 352.07400000000007 214.249 352.49800000000005 214.254 353.23800000000006 214.016 C 353.89500000000004 210.67499999999998 362.55400000000003 205.445 366.76500000000004 203.975 C 366.70400000000006 203.769 366.944 202.027 366.713 201.48499999999999 C 369.615 201.873 374.36100000000005 196.19299999999998 374.197 196.33999999999997 C 374.311 196.30499999999998 377.061 196.30399999999997 378.076 196.66499999999996 C 378.55 193.32299999999995 379.605 191.00899999999996 381.694 191.96799999999996 C 381.52700000000004 190.62599999999995 382.47200000000004 188.82099999999997 383.706 186.94899999999996 C 383.75 187.00499999999997 383.769 187.04899999999995 383.867 187.12799999999996 C 383.771 187.02399999999994 383.78200000000004 186.95799999999997 383.754 186.87699999999995 C 386.237 183.12799999999996 389.84900000000005 179.12899999999996 388.067 178.03499999999994 C 395.447 178.08099999999993 399.379 166.64099999999993 400.817 163.14899999999994 C 413.303 132.83599999999996 393.592 132.31099999999995 385.384 117.53999999999994 C 372.767 123.75399999999993 364.94100000000003 120.65999999999994 353.18 137.71299999999994 C 352.32800000000003 140.41299999999993 346.349 161.51499999999993 342.148 164.23599999999993 C 342.129 164.17299999999994 342.12100000000004 164.12899999999993 342.11800000000005 164.09699999999992 C 342.09700000000004 164.19799999999992 341.96700000000004 164.39499999999992 341.37200000000007 164.39499999999992 C 341.6810000000001 163.96899999999994 339.6360000000001 159.98299999999992 338.77200000000005 158.70099999999994 C 338.857 157.70399999999992 339.035 155.82499999999993 339.30800000000005 155.20099999999994 C 336.624 153.75199999999992 333.09700000000004 152.70199999999994 334.43700000000007 150.25399999999993 C 333.07500000000005 150.15399999999994 331.6090000000001 149.47699999999995 330.1650000000001 148.52199999999993 C 330.26900000000006 148.40299999999993 330.3210000000001 148.30699999999993 330.11500000000007 148.31199999999993 C 330.10400000000004 148.37799999999993 330.1170000000001 148.43599999999992 330.1240000000001 148.49399999999991 C 326.3310000000001 145.97199999999992 322.7050000000001 141.3969999999999 321.63200000000006 139.17299999999992 C 314.6960000000001 138.5109999999999 309.98500000000007 125.81999999999992 298.66300000000007 125.71499999999992 C 298.82200000000006 125.21999999999991 294.8550000000001 121.62499999999991 293.7130000000001 119.92299999999992 C 284.538 116.586 269.312 118.716 262.47 126.006 z M 340.394 213.381 C 340.38100000000003 213.347 340.37 213.321 340.357 213.289 C 340.426 213.449 340.45 213.505 340.394 213.381 z M 329.18 174.993 C 329.75600000000003 171.963 333.009 175.932 328.242 177.635 C 328.432 177.216 329.069 174.467 329.18 174.993 z M 205.516 77.837 C 200.88299999999998 66.952 197.899 59.536 192.892 52.801 C 190.67499999999998 40.868 177.361 -7.777999999999999 216.487 1.0670000000000002 C 229.195 3.9400000000000004 244.17 30.817 238.486 38.655 C 239.13 38.385 240.522 37.885 241.176 38.349000000000004 C 240.081 42.249 245.09699999999998 28.913000000000004 243.90099999999998 32.139 C 254.301 20.494000000000003 253.337 18.227000000000004 262.46 12.363000000000003 C 263.768 11.522000000000004 286.719 8.843000000000004 285.77299999999997 9.530000000000003 C 304.006 23.654000000000003 300.90099999999995 63.44 283.14899999999994 63.44 C 284.89399999999995 64.511 281.28099999999995 68.65599999999999 278.83599999999996 72.524 C 278.86499999999995 72.603 278.85499999999996 72.667 278.94999999999993 72.766 C 278.8519999999999 72.69200000000001 278.83599999999996 72.649 278.7899999999999 72.596 C 277.57499999999993 74.528 276.6559999999999 76.388 276.86599999999993 77.753 C 274.7079999999999 76.867 273.7389999999999 79.342 273.3859999999999 82.693 C 272.3909999999999 82.401 269.53399999999993 82.584 269.4669999999999 82.61 C 269.54299999999995 82.513 265.1089999999999 88.63 262.1529999999999 88.463 C 262.4639999999999 89.044 262.26499999999993 91.317 262.4279999999999 90.95299999999999 C 258.2709999999999 92.83099999999999 249.97399999999988 99.24 249.56399999999988 102.79099999999998 C 248.83499999999987 103.14999999999998 248.41499999999988 103.19499999999998 248.17799999999988 103.11799999999998 C 248.17799999999988 103.27699999999999 248.18199999999987 103.42799999999998 248.15199999999987 103.67699999999998 C 246.01399999999987 95.21899999999998 246.87099999999987 108.92699999999998 244.20299999999986 101.61499999999998 C 243.88999999999987 106.84399999999998 242.94099999999986 102.62399999999998 243.24699999999987 106.16599999999998 C 239.89299999999986 105.57699999999998 240.94999999999987 104.88099999999999 238.62599999999986 105.17599999999999 C 238.61899999999986 105.16199999999999 238.65799999999987 105.12099999999998 238.62999999999985 105.11899999999999 C 238.65099999999984 105.13199999999999 238.60999999999984 105.15999999999998 238.62299999999985 105.17699999999999 C 238.45599999999985 105.198 238.31699999999984 105.21199999999999 238.11099999999985 105.24399999999999 C 237.68199999999985 106.02599999999998 238.36999999999983 105.59399999999998 238.60799999999986 105.30799999999998 C 238.49299999999985 105.71099999999998 236.95599999999988 106.40999999999998 236.48299999999986 106.35399999999998 C 217.592 104.15 212.665 94.632 205.516 77.837 z M 428.258 562.063 C 425.786 564.652 419.43899999999996 572.691 419.657 577.616 C 417.856 576.836 415.676 579.102 415.32599999999996 582.905 C 414.51099999999997 582.5849999999999 411.167 582.552 411.32099999999997 582.485 C 411.37899999999996 582.4350000000001 405.34999999999997 588.631 402.49899999999997 587.193 C 401.10999999999996 588.279 388.431 596.032 387.741 598.29 C 386.882 598.48 386.48699999999997 598.381 386.299 598.216 C 386.265 598.386 386.221 598.5790000000001 386.125 598.862 C 386.195 594.424 381.134 597.596 380.298 600.001 C 378.629 599.045 377.842 596.386 377.4 599.446 C 377.31699999999995 598.3910000000001 376.712 596.9150000000001 376.109 596.03 C 376.63399999999996 595.11 375.32399999999996 595.015 374.012 595.259 C 374.044 593.4780000000001 373.87 593.238 373.47 594.705 C 373.71700000000004 592.784 373.559 592.898 372.994 595.046 C 373.182 591.767 374.096 592.1590000000001 373.61 589.075 C 373.97200000000004 591.1700000000001 374.223 591.777 374.59200000000004 593.98 C 373.78900000000004 589.064 377.77200000000005 590.121 378.29100000000005 590.7620000000001 C 377.84000000000003 589.749 377.97800000000007 589.6840000000001 378.71000000000004 590.567 C 378.699 589.379 378.31300000000005 588.715 377.16800000000006 587.76 C 377.34200000000004 587.697 377.45400000000006 587.607 377.54800000000006 587.507 C 377.9270000000001 588.0509999999999 378.46500000000003 588.367 379.1960000000001 588.415 C 379.2390000000001 587.9989999999999 379.9460000000001 585.8779999999999 381.5270000000001 588.184 C 380.9820000000001 587.273 380.0850000000001 585.703 379.3450000000001 584.377 C 379.31000000000006 584.462 379.2990000000001 584.579 379.37500000000006 584.78 C 379.10800000000006 584.348 379.10400000000004 584.169 379.16900000000004 584.058 C 378.70500000000004 583.218 378.33200000000005 582.527 378.24100000000004 582.3149999999999 C 378.785 582.967 379.22400000000005 583.429 379.581 583.7439999999999 C 379.583 583.742 379.587 583.742 379.587 583.7389999999999 C 379.592 583.7439999999999 379.589 583.7439999999999 379.592 583.7509999999999 C 380.585 584.6159999999999 380.864 584.1849999999998 380.401 582.3989999999999 C 380.66 583.1649999999998 384.728 589.3899999999999 385.094 588.2529999999999 C 383.677 586.02 383.781 585.8929999999999 385.407 587.867 C 385.34999999999997 586.679 384.974 585.62 384.34499999999997 584.6659999999999 C 384.393 584.7349999999999 384.47099999999995 584.776 384.517 584.8499999999999 C 384.146 582.0869999999999 384.43 582.6429999999999 383.697 580.4649999999999 C 383.556 580.429 385.962 580.381 387.237 580.795 C 385.62800000000004 577.7239999999999 392.08000000000004 581.424 388.877 577.466 C 389.069 577.578 389.565 577.785 390.137 578.019 C 389.97 577.822 389.777 577.546 389.515 577.111 C 390.09999999999997 577.7139999999999 390.203 577.932 390.144 578.0219999999999 C 391.161 578.438 392.397 578.93 392.559 579.117 C 392.87 578.346 391.34700000000004 575.901 391.31 574.661 C 394.428 574.226 396.439 574.7099999999999 396.847 575.207 C 395.606 572.8439999999999 394.762 570.79 393.337 568.619 C 394.767 569.484 399.841 567.6560000000001 401.149 568.029 C 400.367 567.667 399.168 564.421 398.836 562.55 C 397.982 561.544 403 564.904 402.88 564.866 C 404.834 567.867 400.001 559.557 400.492 559.888 C 400.85400000000004 560.19 400.925 559.964 400.70500000000004 559.214 C 402.08000000000004 560.1310000000001 401.646 559.879 403.18800000000005 560.6460000000001 C 405.38500000000005 559.522 399.44300000000004 556.8850000000001 399.98300000000006 556.9240000000001 C 400.13200000000006 557.0240000000001 403.84900000000005 555.2900000000001 404.80600000000004 555.6880000000001 C 404.61 555.6060000000001 403.14900000000006 553.8810000000001 403.04600000000005 553.849 C 404.29300000000006 554.3820000000001 406.338 553.6210000000001 407.42300000000006 554.465 C 405.92900000000003 553.437 405.93800000000005 553.062 407.44900000000007 553.3430000000001 C 407.00000000000006 552.964 403.6360000000001 551.5430000000001 403.4190000000001 551.3720000000001 C 405.3980000000001 551.576 407.0650000000001 552.3240000000001 408.4180000000001 553.6160000000001 C 409.3460000000001 553.2650000000001 404.26800000000014 551.1200000000001 404.2550000000001 551.1070000000001 C 404.58800000000014 549.8140000000001 404.9010000000001 549.2700000000001 405.4010000000001 548.8470000000001 C 404.4380000000001 549.0830000000001 403.52800000000013 548.9960000000001 402.6710000000001 548.58 C 404.1130000000001 549.033 403.6060000000001 547.0200000000001 405.5920000000001 546.6310000000001 C 402.2700000000001 546.479 401.9870000000001 545.768 404.7420000000001 544.4990000000001 C 404.1410000000001 543.3990000000001 391.21900000000005 543.6070000000001 398.61800000000005 540.3990000000001 C 398.56600000000003 540.3580000000001 398.52200000000005 540.3520000000001 398.47400000000005 540.3260000000001 C 398.79 540.1740000000001 399.20900000000006 539.9200000000002 399.80800000000005 539.4360000000001 C 397.99500000000006 539.7430000000002 396.28000000000003 539.4360000000001 394.66 538.5150000000001 C 395.38100000000003 538.2590000000001 395.608 536.5200000000001 395.90700000000004 535.921 C 395.58200000000005 536.311 395.36500000000007 536.45 395.20700000000005 536.504 C 395.2660000000001 536.421 395.28700000000003 536.3960000000001 395.32800000000003 536.342 C 395.254 536.353 395.25500000000005 536.151 395.608 535.205 C 394.628 537.822 394.684 534.7080000000001 394.825 533.7270000000001 C 394.2 536.1060000000001 393.633 537.484 393.313 533.7 C 393.30899999999997 534.628 393.292 534.7860000000001 393.25399999999996 534.1750000000001 C 393.04799999999994 534.82 393.10499999999996 535.392 393.42299999999994 535.8950000000001 C 393.38399999999996 535.6730000000001 393.00299999999993 535.0710000000001 392.9479999999999 534.6980000000001 C 392.5879999999999 534.8790000000001 390.17299999999994 538.6320000000001 388.6329999999999 536.5330000000001 C 388.68999999999994 537.1010000000001 387.8259999999999 543.8210000000001 383.3159999999999 542.1020000000001 C 386.12499999999994 542.2680000000001 379.50299999999993 555.5050000000001 378.6139999999999 555.623 C 382.85099999999994 557.9190000000001 366.9799999999999 582.3380000000001 366.50999999999993 582.373 C 366.6649999999999 582.3620000000001 367.9189999999999 582.979 368.39699999999993 583.0210000000001 C 367.12999999999994 583.5590000000001 365.93999999999994 585.811 364.9769999999999 587.9000000000001 C 364.9869999999999 587.8520000000001 367.5789999999999 587.383 368.4009999999999 587.0980000000001 C 348.6529999999999 606.086 325.4919999999999 559.7570000000001 316.56799999999987 559.3240000000001 C 319.46799999999985 557.509 313.55599999999987 554.9910000000001 312.10999999999984 554.44 C 301.28799999999984 537.95 278.75199999999984 504.571 318.53799999999984 497.58600000000007 C 339.9809999999998 493.8210000000001 346.3029999999998 513.6270000000001 356.54499999999985 516.542 C 356.82099999999986 518.472 356.75799999999987 518.8140000000001 358.15699999999987 521.2950000000001 C 360.43099999999987 520.744 369.01599999999985 510.0920000000001 370.5939999999999 508.17300000000006 C 384.0329999999999 500.97300000000007 404.2709999999999 505.81000000000006 404.9369999999999 505.3670000000001 C 408.1179999999999 511.62300000000005 426.7639999999999 517.5820000000001 430.4439999999999 536.8290000000001 C 432.175 545.889 427.442 555.105 428.258 562.063 z M 172.784 134.196 C 166.638 133.597 156.517 129.069 150.236 124.50399999999999 C 145.63799999999998 141.688 144.06 137.238 132.404 151.72199999999998 C 131.642 154.74599999999998 128.397 163.67899999999997 128.29399999999998 164.85299999999998 C 126.96599999999998 163.95999999999998 126.18299999999998 164.558 125.94599999999998 166.647 C 125.24799999999999 161.004 124.76599999999998 162.13299999999998 126.16699999999999 160.803 C 124.91599999999998 160.31 123.719 159.226 122.60799999999999 157.885 C 122.76599999999999 157.795 122.862 157.712 122.64699999999999 157.652 C 122.612 157.726 122.60799999999999 157.796 122.594 157.867 C 119.701 154.358 117.482 148.94299999999998 116.98299999999999 146.553 C 113.22899999999998 145.081 107.883 133.981 101.511 130.90699999999998 C 85.835 123.34699999999998 56.787 128.414 60.086 152.67899999999997 C 60.129999999999995 152.71199999999996 62.824999999999996 166.47999999999996 63.899 164.68099999999998 C 63.817 165.84599999999998 72.4 182.24699999999999 76.562 189.10899999999998 C 80.67999999999999 192.48399999999998 118.54499999999999 226.25699999999998 115.026 242.70099999999996 C 118.529 241.11799999999997 125.902 241.09899999999996 125.24499999999999 236.08199999999997 C 125.37799999999999 235.59499999999997 127.63799999999999 241.08099999999996 127.64099999999999 241.08199999999997 C 128.021 240.90599999999998 130.917 234.96199999999996 132.297 237.51899999999998 C 131.158 238.57099999999997 131.063 239.07799999999997 132.015 239.03799999999998 C 131.88299999999998 239.12699999999998 133.47899999999998 235.13199999999998 134.46599999999998 233.331 C 133.77599999999998 233.34599999999998 132.83399999999997 233.028 132.54399999999998 233.012 C 135.033 231.182 135.45399999999998 229.841 137.378 227.392 C 136.78799999999998 227.716 133.821 228.743 133.826 228.60399999999998 C 135.90699999999998 222.31199999999998 140.59799999999998 217.91199999999998 144.619 216.85399999999998 C 144.539 216.587 144.584 214.96599999999998 144.31 214.44699999999997 C 147.168 214.44899999999998 151.153 208.545 150.992 208.72099999999998 C 151.13899999999998 208.66199999999998 153.785 208.444 154.852 208.71699999999998 C 154.935 205.34499999999997 155.778 203.13199999999998 157.899 203.898 C 157.581 202.56799999999998 158.335 200.765 159.377 198.896 C 159.42600000000002 198.94899999999998 159.452 198.99699999999999 159.565 199.071 C 159.454 198.969 159.45499999999998 198.899 159.419 198.82 C 161.537 195.047 164.80800000000002 191.022 162.952 190.03799999999998 C 173.369 189.62199999999999 173.296 172.51999999999998 179.36599999999999 165.54199999999997 C 179.228 155.575 172.248 135.308 172.784 134.196 z" stroke-linecap="round" />
</g>
</svg>